<?xml version="1.0" encoding="UTF-8" standalone="no"?>
<!-- Created with Inkscape (http://www.inkscape.org/) -->

<svg
   xmlns:dc="http://purl.org/dc/elements/1.1/"
   xmlns:cc="http://creativecommons.org/ns#"
   xmlns:rdf="http://www.w3.org/1999/02/22-rdf-syntax-ns#"
   xmlns:svg="http://www.w3.org/2000/svg"
   xmlns="http://www.w3.org/2000/svg"
   xmlns:sodipodi="http://sodipodi.sourceforge.net/DTD/sodipodi-0.dtd"
   xmlns:inkscape="http://www.inkscape.org/namespaces/inkscape"
   version="1.1"
   id="svg2"
   width="350mm"
   height="211mm"
   viewBox="0 0 1322.8345 797.48108"
   sodipodi:docname="Maskenschnitt-Laser-L-aussen_neu.svg"
   inkscape:version="0.92.4 (5da689c313, 2019-01-14)"
   inkscape:label="BottomL">
  <metadata
     id="metadata8">
    <rdf:RDF>
      <cc:Work
         rdf:about="">
        <dc:format>image/svg+xml</dc:format>
        <dc:type
           rdf:resource="http://purl.org/dc/dcmitype/StillImage" />
        <dc:title></dc:title>
      </cc:Work>
    </rdf:RDF>
  </metadata>
  <defs
     id="defs6" />
  <sodipodi:namedview
     pagecolor="#ffffff"
     bordercolor="#666666"
     borderopacity="1"
     objecttolerance="10"
     gridtolerance="10"
     guidetolerance="10"
     inkscape:pageopacity="0"
     inkscape:pageshadow="2"
     inkscape:window-width="1920"
     inkscape:window-height="1017"
     id="namedview4"
     showgrid="false"
     inkscape:document-units="mm"
     units="mm"
     inkscape:snap-text-baseline="false"
     inkscape:zoom="0.45845385"
     inkscape:cx="160.10435"
     inkscape:cy="218.61686"
     inkscape:window-x="-8"
     inkscape:window-y="-8"
     inkscape:window-maximized="1"
     inkscape:current-layer="layer1" />
  <g
     inkscape:groupmode="layer"
     id="layer1"
     inkscape:label="TopL"
     transform="translate(0,-325.03953)">
    <path
       style="fill:none;stroke:#000000;stroke-width:1.1338594;stroke-linecap:butt;stroke-linejoin:miter;stroke-miterlimit:4;stroke-dasharray:none;stroke-dashoffset:0;stroke-opacity:1"
       d="m 643.0325,975.34808 c -43.42023,50.24232 -102.14258,89.78562 -147.0817,113.12292 0,0 -60.24572,-104.46281 -90.27889,-130.61299 -29.38494,-25.58575 -80.14207,-64.1632 -171.94112,-92.90257 -11.1321,-3.4851 -146.905943,-13.98386 -152.227123,-13.09701 -5.32119,0.88686 -77.15721,-0.88685 -77.15721,-0.88685 V 524.60547 c 56.75933,-0.14783 140.442613,1.09738 170.277983,-0.44344 204.45375,-20.86851 214.59448,-44.80024 320.61868,-126.8044 17.16971,-13.27986 74.92283,-68.7492 74.92283,-68.7492 L 661.513,462.52496 752.86005,328.60843 c 0,0 57.75312,55.46934 74.92283,68.7492 106.0242,82.00416 116.16493,105.93589 320.61872,126.8044 29.8353,1.54082 113.5186,0.29561 170.2779,0.44344 v 326.36611 c 0,0 -71.836,1.77371 -77.1572,0.88685 -5.3211,-0.88685 -141.095,9.61191 -152.2271,13.09701 -91.79904,28.73937 -142.55617,67.31682 -171.94111,92.90257 C 887.32092,984.00819 827.0752,1088.471 827.0752,1088.471 782.13608,1065.1337 723.41373,1025.5904 679.9935,975.34808 672.01172,963.81882 661.513,947.33226 661.513,947.33226 c 0,0 -10.49872,16.48656 -18.4805,28.01582 z"
       id="path3715"
       inkscape:connector-curvature="0"
       sodipodi:nodetypes="ccssscccscccsccccsscccc" />
    <path
       style="fill:none;stroke:#ff6bc4;stroke-width:1.13385832;stroke-linecap:butt;stroke-linejoin:miter;stroke-miterlimit:4;stroke-dasharray:4.53543337, 2.26771669, 1.13385834, 2.26771669;stroke-dashoffset:0;stroke-opacity:1"
       d="M 129.39434,852.30187 V 525.93576 h 0.44344"
       id="path3717"
       inkscape:connector-curvature="0" />
    <text
       xml:space="preserve"
       style="font-style:normal;font-weight:normal;font-size:24.53333473px;line-height:1;font-family:sans-serif;letter-spacing:0px;word-spacing:0px;fill:#ff6bc4;fill-opacity:1;stroke:none;stroke-width:2.29999995"
       x="292.82797"
       y="493.86221"
       id="text4554-1-9"><tspan
         sodipodi:role="line"
         x="292.82797"
         y="493.86221"
         id="tspan4562-3-0"
         style="font-style:normal;font-variant:normal;font-weight:normal;font-stretch:normal;font-size:18.66666794px;font-family:sans-serif;-inkscape-font-specification:'sans-serif, Normal';font-variant-ligatures:normal;font-variant-caps:normal;font-variant-numeric:normal;font-feature-settings:normal;text-align:center;writing-mode:lr-tb;text-anchor:middle;fill:#ff6bc4;fill-opacity:1;stroke-width:2.29999995">Large</tspan></text>
    <flowRoot
       xml:space="preserve"
       id="flowRoot968"
       style="font-style:normal;font-weight:normal;font-size:10.66666698px;line-height:1;font-family:sans-serif;letter-spacing:0px;word-spacing:0px;fill:#000000;fill-opacity:1;stroke:none"><flowRegion
         id="flowRegion970"><rect
           id="rect972"
           width="706.4068"
           height="726.45764"
           x="720.28815"
           y="-84.756966" /></flowRegion><flowPara
         id="flowPara974" /></flowRoot>    <path
       style="fill:none;stroke:#ff6bc4;stroke-width:1.13385832;stroke-linecap:butt;stroke-linejoin:miter;stroke-miterlimit:4;stroke-dasharray:4.53543337, 2.26771669, 1.13385834, 2.26771669;stroke-dashoffset:0;stroke-opacity:1"
       d="M 1193.6317,852.30187 V 525.93576 h -0.4435"
       id="path3717-7"
       inkscape:connector-curvature="0" />
  </g>
</svg>
