<?xml version="1.0" encoding="UTF-8" standalone="no"?>
<!-- Created with Inkscape (http://www.inkscape.org/) -->

<svg
   xmlns:dc="http://purl.org/dc/elements/1.1/"
   xmlns:cc="http://creativecommons.org/ns#"
   xmlns:rdf="http://www.w3.org/1999/02/22-rdf-syntax-ns#"
   xmlns:svg="http://www.w3.org/2000/svg"
   xmlns="http://www.w3.org/2000/svg"
   xmlns:sodipodi="http://sodipodi.sourceforge.net/DTD/sodipodi-0.dtd"
   xmlns:inkscape="http://www.inkscape.org/namespaces/inkscape"
   version="1.1"
   id="svg2"
   width="522mm"
   height="162mm"
   viewBox="0 0 1972.9151 612.28411"
   sodipodi:docname="Maskenschnitt-Laser-S.svg"
   inkscape:version="0.92.3 (2405546, 2018-03-11)"
   inkscape:label="BottomL">
  <metadata
     id="metadata8">
    <rdf:RDF>
      <cc:Work
         rdf:about="">
        <dc:format>image/svg+xml</dc:format>
        <dc:type
           rdf:resource="http://purl.org/dc/dcmitype/StillImage" />
        <dc:title></dc:title>
      </cc:Work>
    </rdf:RDF>
  </metadata>
  <defs
     id="defs6" />
  <sodipodi:namedview
     pagecolor="#ffffff"
     bordercolor="#666666"
     borderopacity="1"
     objecttolerance="10"
     gridtolerance="10"
     guidetolerance="10"
     inkscape:pageopacity="0"
     inkscape:pageshadow="2"
     inkscape:window-width="1920"
     inkscape:window-height="1138"
     id="namedview4"
     showgrid="false"
     inkscape:document-units="mm"
     units="mm"
     inkscape:snap-text-baseline="false"
     inkscape:zoom="0.4125"
     inkscape:cx="709.2325"
     inkscape:cy="-163.93938"
     inkscape:window-x="1912"
     inkscape:window-y="-8"
     inkscape:window-maximized="1"
     inkscape:current-layer="layer1"
     showguides="false" />
  <g
     inkscape:groupmode="layer"
     id="layer1"
     inkscape:label="TopL"
     transform="translate(0,-510.2365)">
    <rect
       style="fill:none;stroke:#000000;stroke-width:1.13385832;stroke-miterlimit:4;stroke-dasharray:none;stroke-opacity:1"
       id="rect4524"
       width="112.42671"
       height="112.29039"
       x="44.319344"
       y="996.43768"
       ry="0" />
    <text
       xml:space="preserve"
       style="font-style:normal;font-weight:normal;font-size:92px;line-height:1.25;font-family:sans-serif;letter-spacing:0px;word-spacing:0px;fill:#000000;fill-opacity:1;stroke:none;stroke-width:2.29999995"
       x="47.715187"
       y="1066.036"
       id="text4528"><tspan
         sodipodi:role="line"
         id="tspan4526"
         x="47.715187"
         y="1066.036"
         style="font-style:normal;font-variant:normal;font-weight:normal;font-stretch:normal;font-size:30.66666603px;font-family:sans-serif;-inkscape-font-specification:'sans-serif, Normal';font-variant-ligatures:normal;font-variant-caps:normal;font-variant-numeric:normal;font-feature-settings:normal;text-align:start;writing-mode:lr-tb;text-anchor:start;stroke-width:2.29999995">3x3cm</tspan></text>
    <text
       xml:space="preserve"
       style="font-style:normal;font-weight:normal;font-size:24.53333473px;line-height:1;font-family:sans-serif;letter-spacing:0px;word-spacing:0px;fill:#000000;fill-opacity:1;stroke:none;stroke-width:2.29999995"
       x="100.9715"
       y="991.10901"
       id="text4554-1-95"><tspan
         sodipodi:role="line"
         x="100.9715"
         y="991.10901"
         id="tspan4562-3-04"
         style="font-style:normal;font-variant:normal;font-weight:normal;font-stretch:normal;font-size:18.66666794px;font-family:sans-serif;-inkscape-font-specification:'sans-serif, Normal';font-variant-ligatures:normal;font-variant-caps:normal;font-variant-numeric:normal;font-feature-settings:normal;text-align:center;writing-mode:lr-tb;text-anchor:middle;fill:#000000;fill-opacity:1;stroke-width:2.29999995">Small</tspan></text>
    <flowRoot
       xml:space="preserve"
       id="flowRoot968"
       style="font-style:normal;font-weight:normal;font-size:10.66666698px;line-height:1;font-family:sans-serif;letter-spacing:0px;word-spacing:0px;fill:#000000;fill-opacity:1;stroke:none"
       transform="translate(-78.575136,114.84275)"><flowRegion
         id="flowRegion970"><rect
           id="rect972"
           width="706.4068"
           height="726.45764"
           x="720.28815"
           y="-84.756966" /></flowRegion><flowPara
         id="flowPara974" /></flowRoot>    <text
       xml:space="preserve"
       style="font-style:normal;font-variant:normal;font-weight:normal;font-stretch:normal;font-size:8px;line-height:25px;font-family:'Curlz MT';-inkscape-font-specification:'Curlz MT';letter-spacing:0px;word-spacing:0px;fill:#000000;fill-opacity:1;stroke:none"
       x="64.367149"
       y="1105.576"
       id="text4844"><tspan
         sodipodi:role="line"
         id="tspan4842"
         x="64.367149"
         y="1105.576"
         style="font-style:normal;font-variant:normal;font-weight:normal;font-stretch:normal;font-family:sans-serif;-inkscape-font-specification:sans-serif">www.masken.berlin</tspan></text>
    <path
       style="fill:none;stroke:#000000;stroke-width:1.13385832;stroke-linecap:butt;stroke-linejoin:miter;stroke-miterlimit:4;stroke-dasharray:1.13385838, 2.26771675999999989;stroke-dashoffset:0;stroke-opacity:1"
       d="m 124.66982,969.19071 0.41867,-329.21676"
       id="path858-4"
       inkscape:connector-curvature="0"
       sodipodi:nodetypes="cc" />
    <path
       style="fill:none;stroke:#1000ff;stroke-width:1.1338594;stroke-linecap:butt;stroke-linejoin:miter;stroke-miterlimit:4;stroke-dasharray:none;stroke-dashoffset:0;stroke-opacity:1"
       d="M 550.55045,622.85714 622.337,520.5756 c 0,0 66.09107,56.30516 121.01022,78.89733 57.64626,23.71401 129.67391,37.84989 243.0934,39.67338 l 113.54798,-0.7615 0.5453,324.13421 -39.8431,0.95429 -73.6484,4.43433 c 0,0 -91.47426,3.72992 -142.22874,17.65517 -19.21501,5.27194 -67.23453,31.38049 -106.47527,60.05249 -29.34633,21.4425 -60.57437,64.9913 -69.63576,76.1736 l -43.87399,-25.2155 c -40.1277,-30.0448 -49.06427,-35.9467 -60.89394,-52.9949 -13.72954,-19.7862 -13.38425,-33.0025 -13.38425,-33.0025 0,0 -0.10926,13.3674 -13.38424,33.0021 -11.6223,17.1903 -20.76622,22.9501 -60.89388,52.9949 l -43.87394,25.2154 C 423.33701,1110.6062 392.109,1067.0573 362.7627,1045.6149 323.522,1016.9429 275.50252,990.83438 256.28753,985.56245 205.53311,971.63721 114.05894,967.90729 114.05894,967.90729 l -73.648296,-4.43432 -39.843132,-0.95429 0.545316,-324.13389 113.547892,0.7615 c 113.41938,-1.82349 185.44695,-15.95935 243.09315,-39.67334 54.9191,-22.59215 121.0101,-78.89725 121.0101,-78.89725 l 71.78648,102.28144"
       id="path856-6-8"
       inkscape:connector-curvature="0"
       sodipodi:nodetypes="ccscccccssccscsccsscccccscc" />
    <path
       style="fill:none;stroke:#000000;stroke-width:1.13385832;stroke-linecap:butt;stroke-linejoin:miter;stroke-miterlimit:4;stroke-dasharray:1.13385838, 2.26771675999999989;stroke-dashoffset:0;stroke-opacity:1"
       d="M 976.43151,969.19106 976.01284,639.97397"
       id="path858-4-6"
       inkscape:connector-curvature="0"
       sodipodi:nodetypes="cc" />
    <path
       style="fill:none;stroke:#1000ff;stroke-width:1.1338594;stroke-linecap:butt;stroke-linejoin:miter;stroke-miterlimit:4;stroke-dasharray:none;stroke-dashoffset:0;stroke-opacity:1"
       d="m 1539.2724,622.85659 71.7866,-102.28154 c 0,0 66.0911,56.30516 121.0102,78.89733 57.6463,23.71401 119.228,37.74275 232.6475,39.56624 l 0.4416,329.1715 c 0,0 -80.8682,3.42689 -131.6226,17.35214 -19.2151,5.27194 -67.2346,31.38054 -106.4753,60.05254 -29.3463,21.4425 -60.5744,64.9913 -69.6358,76.1736 l -43.874,-25.2155 c -40.1277,-30.0448 -49.0642,-35.9467 -60.8939,-52.9949 -13.7295,-19.7862 -13.3843,-33.0025 -13.3843,-33.0025 0,0 -0.1092,13.3674 -13.3842,33.0021 -11.6223,17.1903 -20.7662,22.9501 -60.8939,52.9949 l -43.8739,25.2154 c -9.0614,-11.1822 -40.2894,-54.7311 -69.6357,-76.1735 -39.2407,-28.672 -87.2602,-54.78057 -106.4752,-60.0525 -50.7544,-13.92524 -131.7291,-17.44089 -131.7291,-17.44089 l 0.5301,-328.14761 c 113.4194,-1.82349 175.0192,-16.78701 232.6654,-40.501 54.9191,-22.59215 121.0101,-78.89725 121.0101,-78.89725 l 71.7864,102.28144"
       id="path856-6-8-9"
       inkscape:connector-curvature="0"
       sodipodi:nodetypes="ccsccssccscsccssccscc" />
    <rect
       style="opacity:1;fill:none;fill-opacity:1;stroke:#ff0000;stroke-width:1.10325265;stroke-linejoin:round;stroke-miterlimit:4;stroke-dasharray:none;stroke-dashoffset:0;stroke-opacity:1"
       id="rect4760"
       width="17.794403"
       height="17.794403"
       x="0.55162632"
       y="510.78812" />
    <rect
       style="opacity:1;fill:none;fill-opacity:1;stroke:#ff0000;stroke-width:1.13385379;stroke-linejoin:round;stroke-miterlimit:4;stroke-dasharray:none;stroke-dashoffset:0;stroke-opacity:1"
       id="rect4762"
       width="1971.7815"
       height="611.15021"
       x="0.5669269"
       y="510.80344" />
  </g>
</svg>
