<?xml version="1.0" encoding="UTF-8" standalone="no"?>
<!-- Created with Inkscape (http://www.inkscape.org/) -->

<svg
   xmlns:dc="http://purl.org/dc/elements/1.1/"
   xmlns:cc="http://creativecommons.org/ns#"
   xmlns:rdf="http://www.w3.org/1999/02/22-rdf-syntax-ns#"
   xmlns:svg="http://www.w3.org/2000/svg"
   xmlns="http://www.w3.org/2000/svg"
   xmlns:sodipodi="http://sodipodi.sourceforge.net/DTD/sodipodi-0.dtd"
   xmlns:inkscape="http://www.inkscape.org/namespaces/inkscape"
   version="1.1"
   id="svg2"
   width="502mm"
   height="150mm"
   viewBox="0 0 1897.3263 566.92968"
   sodipodi:docname="Maskenschnitt-Lasercutter-S.svg"
   inkscape:version="0.92.4 (5da689c313, 2019-01-14)"
   inkscape:label="BottomL">
  <metadata
     id="metadata8">
    <rdf:RDF>
      <cc:Work
         rdf:about="">
        <dc:format>image/svg+xml</dc:format>
        <dc:type
           rdf:resource="http://purl.org/dc/dcmitype/StillImage" />
        <dc:title></dc:title>
      </cc:Work>
    </rdf:RDF>
  </metadata>
  <defs
     id="defs6" />
  <sodipodi:namedview
     pagecolor="#ffffff"
     bordercolor="#666666"
     borderopacity="1"
     objecttolerance="10"
     gridtolerance="10"
     guidetolerance="10"
     inkscape:pageopacity="0"
     inkscape:pageshadow="2"
     inkscape:window-width="1920"
     inkscape:window-height="1020"
     id="namedview4"
     showgrid="false"
     inkscape:document-units="mm"
     units="mm"
     inkscape:snap-text-baseline="false"
     inkscape:zoom="0.64835165"
     inkscape:cx="1247.7874"
     inkscape:cy="567.45764"
     inkscape:window-x="0"
     inkscape:window-y="0"
     inkscape:window-maximized="1"
     inkscape:current-layer="layer1" />
  <g
     inkscape:groupmode="layer"
     id="layer1"
     inkscape:label="TopL"
     transform="translate(0,-555.59094)">
    <g
       id="g909"
       transform="translate(0,127.13568)">
      <path
         sodipodi:nodetypes="sccsscccccscccscccccssccscs"
         inkscape:connector-curvature="0"
         id="path856-6"
         d="m 515.9763,929.59242 c -11.16378,17.49148 -20.76622,22.95007 -60.89388,52.99496 l -13.7453,8.27796 C 432.27574,979.68308 384.99716,938.987 355.65086,917.54451 316.41016,888.8725 251.2823,872.6063 236.30974,869.15256 185.02637,857.32295 92.869029,853.92164 92.869029,853.92164 l -73.648303,-4.43432 -18.2679,-0.95429 -0.385582,-323.04327 92.903565,-0.32912 c 113.419381,-1.82349 205.112231,5.2483 262.758431,-18.46569 54.9191,-22.59215 122.51371,-72.54063 122.51371,-72.54063 l 50.99249,74.75125 50.24269,-74.75125 c 0,0 67.59461,49.94848 122.51371,72.54063 57.6462,23.71399 149.33905,16.6422 262.75843,18.46569 l 92.90353,0.32912 -0.3855,323.04327 -18.2679,0.95429 -73.64835,4.43432 c 0,0 -92.15734,3.40131 -143.44071,15.23092 -14.97256,3.45374 -80.10042,19.71994 -119.34112,48.39195 -29.3463,21.44249 -76.62488,62.13857 -85.68626,73.32083 l -13.7453,-8.27796 C 563.511,952.54249 554.28667,946.83674 542.74478,929.59242 528.99971,909.0564 529.36054,896.59015 529.36054,896.59015 c 0,0 -0.32081,12.53441 -13.38424,33.00227 z"
         style="fill:none;stroke:#000000;stroke-width:1.1338594;stroke-linecap:butt;stroke-linejoin:miter;stroke-miterlimit:4;stroke-dasharray:none;stroke-dashoffset:0;stroke-opacity:1" />
      <path
         sodipodi:nodetypes="cc"
         inkscape:connector-curvature="0"
         id="path858-4"
         d="M 116.59009,854.43387 116.23758,525.21711"
         style="fill:none;stroke:#0000ff;stroke-width:1.13385832;stroke-linecap:butt;stroke-linejoin:miter;stroke-miterlimit:4;stroke-dasharray:1.13385838, 2.26771676;stroke-dashoffset:0;stroke-opacity:1" />
      <text
         id="text4554-1-95"
         y="479.19644"
         x="228.81909"
         style="font-style:normal;font-weight:normal;font-size:24.53333473px;line-height:1;font-family:sans-serif;letter-spacing:0px;word-spacing:0px;fill:#0000ff;fill-opacity:1;stroke:none;stroke-width:2.29999995"
         xml:space="preserve"><tspan
           style="font-style:normal;font-variant:normal;font-weight:normal;font-stretch:normal;font-size:18.66666794px;font-family:sans-serif;-inkscape-font-specification:'sans-serif, Normal';font-variant-ligatures:normal;font-variant-caps:normal;font-variant-numeric:normal;font-feature-settings:normal;text-align:center;writing-mode:lr-tb;text-anchor:middle;fill:#0000ff;fill-opacity:1;stroke-width:2.29999995"
           id="tspan4562-3-04"
           y="479.19644"
           x="228.81909"
           sodipodi:role="line">Small</tspan><tspan
           id="tspan893"
           style="font-style:normal;font-variant:normal;font-weight:normal;font-stretch:normal;font-size:18.66666794px;font-family:sans-serif;-inkscape-font-specification:'sans-serif, Normal';font-variant-ligatures:normal;font-variant-caps:normal;font-variant-numeric:normal;font-feature-settings:normal;text-align:center;writing-mode:lr-tb;text-anchor:middle;fill:#0000ff;fill-opacity:1;stroke-width:2.29999995"
           y="503.72977"
           x="228.81909"
           sodipodi:role="line">Aussenstoff</tspan></text>
      <flowRoot
         transform="translate(-66.892221)"
         style="font-style:normal;font-weight:normal;font-size:10.66666698px;line-height:1;font-family:sans-serif;letter-spacing:0px;word-spacing:0px;fill:#000000;fill-opacity:1;stroke:none"
         id="flowRoot968"
         xml:space="preserve"><flowRegion
           id="flowRegion970"><rect
             y="-84.756966"
             x="720.28815"
             height="726.45764"
             width="706.4068"
             id="rect972" /></flowRegion><flowPara
           id="flowPara974" /></flowRoot>      <path
         sodipodi:nodetypes="cc"
         inkscape:connector-curvature="0"
         id="path858-4-4"
         d="M 942.13099,854.43387 942.4835,525.21711"
         style="fill:none;stroke:#0000ff;stroke-width:1.13385832;stroke-linecap:butt;stroke-linejoin:miter;stroke-miterlimit:4;stroke-dasharray:1.13385838, 2.26771676;stroke-dashoffset:0;stroke-opacity:1" />
      <flowRoot
         transform="matrix(-1,0,0,1,1125.6133,0)"
         style="font-style:normal;font-weight:normal;font-size:10.66666698px;line-height:1;font-family:sans-serif;letter-spacing:0px;word-spacing:0px;fill:#000000;fill-opacity:1;stroke:none"
         id="flowRoot968-0"
         xml:space="preserve"><flowRegion
           id="flowRegion970-7"><rect
             y="-84.756966"
             x="720.28815"
             height="726.45764"
             width="706.4068"
             id="rect972-8" /></flowRegion><flowPara
           id="flowPara974-6" /></flowRoot>    </g>
    <g
       id="g956"
       transform="translate(949.62809,-1.7305395e-4)">
      <path
         sodipodi:nodetypes="sccssccscccsccssccscs"
         inkscape:connector-curvature="0"
         id="path856-6-6"
         d="m 515.9763,1056.7281 c -11.16378,17.4915 -20.76622,22.9501 -60.89388,52.995 l -13.7453,8.2779 c -9.06138,-11.1822 -56.33996,-51.8783 -85.68626,-73.3208 C 316.41016,1016.0082 251.2823,999.74198 236.30974,996.28824 185.02637,984.45863 116.59009,981.56955 116.59009,981.56955 L 116.23758,652.35279 C 229.65696,650.5293 298.58304,657.54462 356.22924,633.83063 411.14834,611.23848 478.74295,561.29 478.74295,561.29 l 50.99249,74.75125 50.24269,-74.75125 c 0,0 67.59461,49.94848 122.51371,72.54063 57.6462,23.71399 126.57228,16.69867 239.99166,18.52216 l -0.35251,329.21676 c 0,0 -68.43628,2.88908 -119.71965,14.71869 -14.97256,3.45374 -80.10042,19.71996 -119.34112,48.39196 -29.3463,21.4425 -76.62488,62.1386 -85.68626,73.3208 l -13.7453,-8.2779 c -40.12766,-30.0449 -49.35199,-35.7507 -60.89388,-52.995 -13.74507,-20.536 -13.38424,-33.0023 -13.38424,-33.0023 0,0 -0.32081,12.5344 -13.38424,33.0023 z"
         style="fill:none;stroke:#000000;stroke-width:1.1338594;stroke-linecap:butt;stroke-linejoin:miter;stroke-miterlimit:4;stroke-dasharray:none;stroke-dashoffset:0;stroke-opacity:1" />
      <text
         id="text4554-1-95-0"
         y="606.33209"
         x="228.81909"
         style="font-style:normal;font-weight:normal;font-size:24.53333473px;line-height:1;font-family:sans-serif;letter-spacing:0px;word-spacing:0px;fill:#0000ff;fill-opacity:1;stroke:none;stroke-width:2.29999995"
         xml:space="preserve"><tspan
           style="font-style:normal;font-variant:normal;font-weight:normal;font-stretch:normal;font-size:18.66666794px;font-family:sans-serif;-inkscape-font-specification:'sans-serif, Normal';font-variant-ligatures:normal;font-variant-caps:normal;font-variant-numeric:normal;font-feature-settings:normal;text-align:center;writing-mode:lr-tb;text-anchor:middle;fill:#0000ff;fill-opacity:1;stroke-width:2.29999995"
           id="tspan4562-3-04-6"
           y="606.33209"
           x="228.81909"
           sodipodi:role="line">Small</tspan><tspan
           id="tspan893-2"
           style="font-style:normal;font-variant:normal;font-weight:normal;font-stretch:normal;font-size:18.66666794px;font-family:sans-serif;-inkscape-font-specification:'sans-serif, Normal';font-variant-ligatures:normal;font-variant-caps:normal;font-variant-numeric:normal;font-feature-settings:normal;text-align:center;writing-mode:lr-tb;text-anchor:middle;fill:#0000ff;fill-opacity:1;stroke-width:2.29999995"
           y="630.86542"
           x="228.81909"
           sodipodi:role="line">Innenstoff</tspan></text>
      <flowRoot
         transform="translate(-66.892221,127.13568)"
         style="font-style:normal;font-weight:normal;font-size:10.66666698px;line-height:1;font-family:sans-serif;letter-spacing:0px;word-spacing:0px;fill:#000000;fill-opacity:1;stroke:none"
         id="flowRoot968-6"
         xml:space="preserve"><flowRegion
           id="flowRegion970-1"><rect
             y="-84.756966"
             x="720.28815"
             height="726.45764"
             width="706.4068"
             id="rect972-87" /></flowRegion><flowPara
           id="flowPara974-9" /></flowRoot>      <flowRoot
         transform="matrix(-1,0,0,1,1125.6133,127.13568)"
         style="font-style:normal;font-weight:normal;font-size:10.66666698px;line-height:1;font-family:sans-serif;letter-spacing:0px;word-spacing:0px;fill:#000000;fill-opacity:1;stroke:none"
         id="flowRoot968-0-2"
         xml:space="preserve"><flowRegion
           id="flowRegion970-7-0"><rect
             y="-84.756966"
             x="720.28815"
             height="726.45764"
             width="706.4068"
             id="rect972-8-2" /></flowRegion><flowPara
           id="flowPara974-6-3" /></flowRoot>    </g>
  </g>
</svg>
