<?xml version="1.0" encoding="UTF-8" standalone="no"?>
<!-- Created with Inkscape (http://www.inkscape.org/) -->

<svg
   xmlns:dc="http://purl.org/dc/elements/1.1/"
   xmlns:cc="http://creativecommons.org/ns#"
   xmlns:rdf="http://www.w3.org/1999/02/22-rdf-syntax-ns#"
   xmlns:svg="http://www.w3.org/2000/svg"
   xmlns="http://www.w3.org/2000/svg"
   xmlns:sodipodi="http://sodipodi.sourceforge.net/DTD/sodipodi-0.dtd"
   xmlns:inkscape="http://www.inkscape.org/namespaces/inkscape"
   version="1.1"
   id="svg2"
   width="520mm"
   height="160mm"
   viewBox="0 0 1965.3496 604.72505"
   sodipodi:docname="Maskenschnitt-Lasercutter-S_neu.svg"
   inkscape:version="0.92.4 (5da689c313, 2019-01-14)"
   inkscape:label="BottomL">
  <metadata
     id="metadata8">
    <rdf:RDF>
      <cc:Work
         rdf:about="">
        <dc:format>image/svg+xml</dc:format>
        <dc:type
           rdf:resource="http://purl.org/dc/dcmitype/StillImage" />
        <dc:title></dc:title>
      </cc:Work>
    </rdf:RDF>
  </metadata>
  <defs
     id="defs6" />
  <sodipodi:namedview
     pagecolor="#ffffff"
     bordercolor="#666666"
     borderopacity="1"
     objecttolerance="10"
     gridtolerance="10"
     guidetolerance="10"
     inkscape:pageopacity="0"
     inkscape:pageshadow="2"
     inkscape:window-width="1920"
     inkscape:window-height="1020"
     id="namedview4"
     showgrid="false"
     inkscape:document-units="mm"
     units="mm"
     inkscape:snap-text-baseline="false"
     inkscape:zoom="6.6000001"
     inkscape:cx="36.239478"
     inkscape:cy="551.64219"
     inkscape:window-x="0"
     inkscape:window-y="0"
     inkscape:window-maximized="1"
     inkscape:current-layer="layer1"
     showguides="false" />
  <g
     inkscape:groupmode="layer"
     id="layer1"
     inkscape:label="TopL"
     transform="translate(0,-517.79556)">
    <path
       style="fill:#0096ff;stroke:#0096ff;stroke-width:1.13385832;stroke-linecap:butt;stroke-linejoin:miter;stroke-miterlimit:4;stroke-dasharray:1.13385838, 2.26771675999999989;stroke-dashoffset:0;stroke-opacity:1;fill-opacity:1"
       d="m 124.66981,977.64063 0.41867,-329.21676"
       id="path858-4"
       inkscape:connector-curvature="0"
       sodipodi:nodetypes="cc" />
    <text
       xml:space="preserve"
       style="font-style:normal;font-weight:normal;font-size:24.53333473px;line-height:1;font-family:sans-serif;letter-spacing:0px;word-spacing:0px;fill:#0096ff;fill-opacity:1;stroke:none;stroke-width:2.29999995;stroke-opacity:1;"
       x="379.832"
       y="570.15186"
       id="text4554-1-95"><tspan
         sodipodi:role="line"
         x="379.832"
         y="570.15186"
         id="tspan4562-3-04"
         style="font-style:normal;font-variant:normal;font-weight:normal;font-stretch:normal;font-size:18.66666794px;font-family:sans-serif;-inkscape-font-specification:'sans-serif, Normal';font-variant-ligatures:normal;font-variant-caps:normal;font-variant-numeric:normal;font-feature-settings:normal;text-align:center;writing-mode:lr-tb;text-anchor:middle;fill:#0096ff;fill-opacity:1;stroke-width:2.29999995;stroke:none;stroke-opacity:1;">Small</tspan></text>
    <flowRoot
       xml:space="preserve"
       id="flowRoot968"
       style="font-style:normal;font-weight:normal;font-size:10.66666698px;line-height:1;font-family:sans-serif;letter-spacing:0px;word-spacing:0px;fill:#000000;fill-opacity:1;stroke:none"
       transform="translate(-45.702317,122.43557)"><flowRegion
         id="flowRegion970"><rect
           id="rect972"
           width="706.4068"
           height="726.45764"
           x="720.28815"
           y="-84.756966" /></flowRegion><flowPara
         id="flowPara974" /></flowRoot>    <path
       style="fill:none;stroke:#000000;stroke-width:1.1338594;stroke-linecap:butt;stroke-linejoin:miter;stroke-miterlimit:4;stroke-dasharray:none;stroke-dashoffset:0;stroke-opacity:1"
       d="m 550.55044,631.30706 71.78648,-102.28144 c 0,0 66.091,56.3051 121.0101,78.89725 57.6462,23.71399 129.67377,37.84985 243.09315,39.67334 l 113.54793,-0.7615 0.5453,324.13389 -39.8431,0.95429 -73.64835,4.43432 c 0,0 -92.15734,3.40131 -143.44071,15.23092 -14.97256,3.45374 -68.91821,28.20297 -108.15891,56.87497 -29.3463,21.4425 -73.15454,62.1386 -82.21592,73.3209 l -28.39785,-16.761 c -40.12766,-30.0449 -49.80136,-35.4582 -60.89388,-52.995 -12.86481,-20.3387 -13.23272,-32.6235 -13.23272,-32.6235 0,0 -0.86684,12.0797 -13.53576,32.6235 -10.89183,17.6621 -20.76622,22.9501 -60.89388,52.995 l -28.39785,16.761 c -9.06138,-11.1823 -52.86962,-51.8784 -82.21592,-73.3209 -39.2407,-28.672 -93.18635,-53.42123 -108.15891,-56.87497 -51.28337,-11.82961 -143.44071,-15.23092 -143.44071,-15.23092 l -73.6483,-4.43432 -39.843129,-0.95429 0.545316,-324.13389 113.547893,0.7615 c 113.41938,-1.82349 185.44695,-15.95935 243.09315,-39.67334 54.9191,-22.59215 121.0101,-78.89725 121.0101,-78.89725 l 71.78648,102.28144"
       id="path856-6-8"
       inkscape:connector-curvature="0"
       sodipodi:nodetypes="ccscccccssccscsccsscccccscc" />
    <path
       style="fill:#0096ff;stroke:#0096ff;stroke-width:1.13385832;stroke-linecap:butt;stroke-linejoin:miter;stroke-miterlimit:4;stroke-dasharray:1.13385838, 2.26771675999999989;stroke-dashoffset:0;stroke-opacity:1;fill-opacity:1"
       d="M 976.43107,977.64063 976.0124,648.42387"
       id="path858-4-5"
       inkscape:connector-curvature="0"
       sodipodi:nodetypes="cc" />
    <flowRoot
       xml:space="preserve"
       id="flowRoot968-1"
       style="font-style:normal;font-weight:normal;font-size:10.66666698px;line-height:1;font-family:sans-serif;letter-spacing:0px;word-spacing:0px;fill:#000000;fill-opacity:1;stroke:none"
       transform="matrix(-1,0,0,1,1146.8032,122.43557)"><flowRegion
         id="flowRegion970-5"><rect
           id="rect972-9"
           width="706.4068"
           height="726.45764"
           x="720.28815"
           y="-84.756966" /></flowRegion><flowPara
         id="flowPara974-8" /></flowRoot>    <path
       style="fill:none;stroke:#000000;stroke-width:1.1338582;stroke-linecap:butt;stroke-linejoin:miter;stroke-miterlimit:4;stroke-dasharray:none;stroke-dashoffset:0;stroke-opacity:1"
       d="m 1537.0241,632.82272 71.7864,-102.28133 c 0,0 66.091,56.30504 121.01,78.89716 57.6462,23.71397 119.0186,37.16232 232.4379,38.98581 l 0.4186,329.2164 c 0,0 -81.5463,2.11789 -132.8296,13.94749 -14.9726,3.45373 -68.9182,28.20285 -108.1588,56.87485 -29.3463,21.4425 -73.1545,62.1385 -82.2159,73.3208 l -28.3978,-16.761 c -40.1276,-30.0448 -49.8013,-35.4581 -60.8938,-52.9949 -12.8648,-20.3387 -13.2327,-32.6235 -13.2327,-32.6235 0,0 -0.8668,12.0797 -13.5357,32.6235 -10.8919,17.6621 -20.7662,22.9501 -60.8939,52.9949 l -28.3978,16.761 c -9.0614,-11.1823 -52.6423,-50.3631 -81.9885,-71.8056 -39.2407,-28.672 -93.1863,-53.42117 -108.1588,-56.8749 -51.2834,-11.8296 -132.5267,-15.46264 -132.5267,-15.46264 l 0.1156,-327.70125 c 113.4193,-1.82349 175.019,-16.78699 232.6652,-40.50096 54.919,-22.59212 121.0099,-78.89716 121.0099,-78.89716 l 71.7864,102.28133"
       id="path856-6-8-9"
       inkscape:connector-curvature="0"
       sodipodi:nodetypes="ccsccssccscsccssccscc" />
    <flowRoot
       xml:space="preserve"
       id="flowRoot968-1-1"
       style="font-style:normal;font-weight:normal;font-size:10.66666698px;line-height:1;font-family:sans-serif;letter-spacing:0px;word-spacing:0px;fill:#000000;fill-opacity:1;stroke:none"
       transform="matrix(-0.99999892,0,0,0.99999892,2133.2763,123.95178)"><flowRegion
         id="flowRegion970-5-2"><rect
           id="rect972-9-7"
           width="706.4068"
           height="726.45764"
           x="720.28815"
           y="-84.756966" /></flowRegion><flowPara
         id="flowPara974-8-0" /></flowRoot>    <text
       xml:space="preserve"
       style="font-style:normal;font-weight:normal;font-size:24.53330803px;line-height:1;font-family:sans-serif;letter-spacing:0px;word-spacing:0px;fill:#0096ff;fill-opacity:1;stroke:none;stroke-width:2.29999757;stroke-opacity:1;"
       x="1357.8534"
       y="579.88"
       id="text4554-1-95-9"><tspan
         sodipodi:role="line"
         x="1357.8534"
         y="579.88"
         id="tspan4562-3-04-3"
         style="font-style:normal;font-variant:normal;font-weight:normal;font-stretch:normal;font-size:18.66664696px;font-family:sans-serif;-inkscape-font-specification:'sans-serif, Normal';font-variant-ligatures:normal;font-variant-caps:normal;font-variant-numeric:normal;font-feature-settings:normal;text-align:center;writing-mode:lr-tb;text-anchor:middle;fill:#0096ff;fill-opacity:1;stroke-width:2.29999757;stroke:none;stroke-opacity:1;">Small</tspan></text>
    <rect
       style="opacity:1;fill:none;fill-opacity:1;stroke:#fd0000;stroke-width:2.00346899;stroke-miterlimit:4;stroke-dasharray:none;stroke-dashoffset:0;stroke-opacity:1"
       id="rect846"
       width="16.894188"
       height="16.894188"
       x="0.9983359"
       y="518.7973" />
    <rect
       style="opacity:1;fill:none;fill-opacity:1;stroke:#ff0000;stroke-width:1.29714024;stroke-miterlimit:4;stroke-dasharray:none;stroke-dashoffset:0;stroke-opacity:1"
       id="rect848"
       x="0.64517152"
       y="518.44415"
       width="1964.0592"
       height="603.4278" />
  </g>
</svg>
