<?xml version="1.0" encoding="UTF-8" standalone="no"?>
<!-- Created with Inkscape (http://www.inkscape.org/) -->

<svg
   xmlns:dc="http://purl.org/dc/elements/1.1/"
   xmlns:cc="http://creativecommons.org/ns#"
   xmlns:rdf="http://www.w3.org/1999/02/22-rdf-syntax-ns#"
   xmlns:svg="http://www.w3.org/2000/svg"
   xmlns="http://www.w3.org/2000/svg"
   xmlns:sodipodi="http://sodipodi.sourceforge.net/DTD/sodipodi-0.dtd"
   xmlns:inkscape="http://www.inkscape.org/namespaces/inkscape"
   version="1.1"
   id="svg2"
   width="313mm"
   height="172mm"
   viewBox="0 0 1182.9903 650.07875"
   sodipodi:docname="Maskenschnitt-Laser-M-aussen.svg"
   inkscape:version="0.92.4 (5da689c313, 2019-01-14)"
   inkscape:label="BottomL">
  <metadata
     id="metadata8">
    <rdf:RDF>
      <cc:Work
         rdf:about="">
        <dc:format>image/svg+xml</dc:format>
        <dc:type
           rdf:resource="http://purl.org/dc/dcmitype/StillImage" />
        <dc:title></dc:title>
      </cc:Work>
    </rdf:RDF>
  </metadata>
  <defs
     id="defs6" />
  <sodipodi:namedview
     pagecolor="#ffffff"
     bordercolor="#666666"
     borderopacity="1"
     objecttolerance="10"
     gridtolerance="10"
     guidetolerance="10"
     inkscape:pageopacity="0"
     inkscape:pageshadow="2"
     inkscape:window-width="1920"
     inkscape:window-height="1020"
     id="namedview4"
     showgrid="false"
     inkscape:document-units="mm"
     units="mm"
     inkscape:snap-text-baseline="false"
     inkscape:zoom="0.45845385"
     inkscape:cx="85.845666"
     inkscape:cy="541.43707"
     inkscape:window-x="0"
     inkscape:window-y="0"
     inkscape:window-maximized="1"
     inkscape:current-layer="layer1"
     width="298mm" />
  <g
     inkscape:groupmode="layer"
     id="layer1"
     inkscape:label="TopL"
     transform="translate(0,-472.44095)">
    <g
       id="g968"
       transform="translate(-50.19934,87.217458)">
      <path
         inkscape:connector-curvature="0"
         id="path858"
         d="m 171.58318,850.10376 0.1928,-329.48942"
         style="fill:none;stroke:#ff0000;stroke-width:1.13385832;stroke-linecap:butt;stroke-linejoin:miter;stroke-miterlimit:4;stroke-dasharray:13.60630003, 13.60630003;stroke-dashoffset:0;stroke-opacity:1" />
      <path
         sodipodi:nodetypes="sscssscccccscccscccccssscsscs"
         inkscape:connector-curvature="0"
         id="path856-5"
         d="m 661.40707,943.92341 c 13.88136,15.42373 25.2256,31.02815 81.16738,73.06989 5.73582,4.3106 23.52118,17.5445 24.29237,17.7373 0.77118,0.1928 17.87085,-27.6218 22.5572,-34.7034 8.67585,-13.11014 38.32531,-45.6507 67.67161,-67.09319 C 896.33629,904.262 951.18728,882.62682 965.25453,876.4446 1013.2661,855.34469 1111.78,850.80265 1111.78,850.80265 l 73.6483,-4.43432 47.1694,-0.95429 -0.1597,-324.13389 -121.2598,0.7615 C 997.75877,520.21816 933.05749,509.55264 875.41131,485.83865 820.49218,463.2465 715.39012,386.5484 715.39012,386.5484 L 641.67954,493.87586 567.97303,386.4279 c 0,0 -105.10206,76.6981 -160.02119,99.29025 -57.64618,23.71399 -122.34746,34.37951 -235.76688,36.203 l -121.259778,-0.7615 -0.159722,324.13389 47.169417,0.95429 73.648303,4.43432 c 0,0 98.51393,4.54204 146.52544,25.64195 14.06725,6.18222 68.91824,27.8174 108.1589,56.48941 29.3463,21.44249 58.99576,53.98305 67.67161,67.09323 4.68635,7.08156 21.78602,34.89616 22.5572,34.70336 0.77119,-0.1928 18.55655,-13.4267 24.29237,-17.7373 55.94178,-42.04174 67.28602,-57.64616 81.16738,-73.06989 13.88136,-15.42373 19.72346,-30.20882 19.72346,-30.20882 0,0 5.84617,14.90559 19.72753,30.32932 z"
         style="fill:none;stroke:#000000;stroke-width:1.13385832;stroke-linecap:butt;stroke-linejoin:miter;stroke-miterlimit:4;stroke-dasharray:none;stroke-opacity:1" />
      <path
         inkscape:connector-curvature="0"
         id="path858-6"
         d="m 1110.8883,850.10376 -0.1928,-329.48942"
         style="fill:none;stroke:#ff0000;stroke-width:1.13385832;stroke-linecap:butt;stroke-linejoin:miter;stroke-miterlimit:4;stroke-dasharray:13.60630003, 13.60630003;stroke-dashoffset:0;stroke-opacity:1" />
    </g>
  </g>
</svg>
