<?xml version="1.0" encoding="UTF-8" standalone="no"?>
<!-- Created with Inkscape (http://www.inkscape.org/) -->

<svg
   xmlns:dc="http://purl.org/dc/elements/1.1/"
   xmlns:cc="http://creativecommons.org/ns#"
   xmlns:rdf="http://www.w3.org/1999/02/22-rdf-syntax-ns#"
   xmlns:svg="http://www.w3.org/2000/svg"
   xmlns="http://www.w3.org/2000/svg"
   xmlns:sodipodi="http://sodipodi.sourceforge.net/DTD/sodipodi-0.dtd"
   xmlns:inkscape="http://www.inkscape.org/namespaces/inkscape"
   version="1.1"
   id="svg2"
   width="566mm"
   height="182mm"
   viewBox="0 0 2139.2157 687.87471"
   sodipodi:docname="Maskenschnitt-Laser-L.svg"
   inkscape:version="0.92.3 (2405546, 2018-03-11)"
   inkscape:label="BottomL">
  <metadata
     id="metadata8">
    <rdf:RDF>
      <cc:Work
         rdf:about="">
        <dc:format>image/svg+xml</dc:format>
        <dc:type
           rdf:resource="http://purl.org/dc/dcmitype/StillImage" />
        <dc:title></dc:title>
      </cc:Work>
    </rdf:RDF>
  </metadata>
  <defs
     id="defs6" />
  <sodipodi:namedview
     pagecolor="#ffffff"
     bordercolor="#666666"
     borderopacity="1"
     objecttolerance="10"
     gridtolerance="10"
     guidetolerance="10"
     inkscape:pageopacity="0"
     inkscape:pageshadow="2"
     inkscape:window-width="1920"
     inkscape:window-height="1138"
     id="namedview4"
     showgrid="false"
     inkscape:document-units="mm"
     units="mm"
     inkscape:snap-text-baseline="false"
     inkscape:zoom="0.5833631"
     inkscape:cx="960.07156"
     inkscape:cy="385.27914"
     inkscape:window-x="1912"
     inkscape:window-y="-8"
     inkscape:window-maximized="1"
     inkscape:current-layer="layer1"
     showguides="false" />
  <g
     inkscape:groupmode="layer"
     id="layer1"
     inkscape:label="TopL"
     transform="translate(0,-434.6459)">
    <flowRoot
       xml:space="preserve"
       id="flowRoot968"
       style="font-style:normal;font-weight:normal;font-size:10.66666698px;line-height:1;font-family:sans-serif;letter-spacing:0px;word-spacing:0px;fill:#000000;fill-opacity:1;stroke:none"
       transform="translate(-38.376697,66.647064)"><flowRegion
         id="flowRegion970"><rect
           id="rect972"
           width="706.4068"
           height="726.45764"
           x="720.28815"
           y="-84.756966" /></flowRegion><flowPara
         id="flowPara974" /></flowRoot>    <rect
       style="fill:none;stroke:#000000;stroke-width:1.13385832;stroke-miterlimit:4;stroke-dasharray:none;stroke-opacity:1"
       id="rect4524"
       width="112.42671"
       height="112.29039"
       x="84.517784"
       y="973.95496"
       ry="0" />
    <text
       xml:space="preserve"
       style="font-style:normal;font-weight:normal;font-size:92px;line-height:1.25;font-family:sans-serif;letter-spacing:0px;word-spacing:0px;fill:#000000;fill-opacity:1;stroke:none;stroke-width:2.29999995"
       x="87.913628"
       y="1043.5533"
       id="text4528"><tspan
         sodipodi:role="line"
         id="tspan4526"
         x="87.913628"
         y="1043.5533"
         style="font-style:normal;font-variant:normal;font-weight:normal;font-stretch:normal;font-size:30.66666603px;font-family:sans-serif;-inkscape-font-specification:'sans-serif, Normal';font-variant-ligatures:normal;font-variant-caps:normal;font-variant-numeric:normal;font-feature-settings:normal;text-align:start;writing-mode:lr-tb;text-anchor:start;stroke-width:2.29999995">3x3cm</tspan></text>
    <path
       style="fill:none;stroke:#0000ff;stroke-width:1.13385832;stroke-linecap:butt;stroke-linejoin:miter;stroke-miterlimit:4;stroke-dasharray:none;stroke-dashoffset:0;stroke-opacity:1"
       d="m 522.66406,441.496 c 0,0 -15.86001,16.87955 -33.30807,29.79151 -123.50814,91.39882 -198.87528,115.71033 -383.60883,119.52158 -29.835367,1.54082 -48.261267,0.0893 -105.020595,0.23711 L 0.566843,915.18009 c 0,0 7.288162,0.76755 14.758755,1.01184 54.670135,1.78774 137.263602,7.03949 148.811212,8.68945 119.78495,17.11533 167.80486,55.70575 199.91386,77.77652 45.79716,31.4795 73.86804,80.5853 95.15615,119.0766 41.85437,-24.8796 61.88838,-34.1241 107.62217,-82.0529 11.06653,-12.6861 24.83685,-36.8845 24.83685,-36.8845 0,0 12.62524,24.1984 23.69177,36.8845 45.73379,47.9288 65.7678,57.1733 107.62217,82.0529 21.28811,-38.4913 49.35899,-87.5971 95.15615,-119.0766 32.109,-22.07077 80.12891,-60.66119 199.91387,-77.77652 11.5476,-1.64996 94.1411,-6.90171 148.8112,-8.68945 7.4706,-0.24429 14.7588,-1.01184 14.7588,-1.01184 L 1181.46,591.0462 c -56.7593,-0.14783 -75.1852,1.30371 -105.0206,-0.23711 C 891.70589,586.99784 816.33875,562.68633 692.83061,471.28751 675.38255,458.37555 659.52254,441.496 659.52254,441.496 L 591.0933,541.51101 Z"
       id="path3715"
       inkscape:connector-curvature="0"
       sodipodi:nodetypes="cscccssscccccssscccsccc" />
    <text
       xml:space="preserve"
       style="font-style:normal;font-weight:normal;font-size:24.53333473px;line-height:1;font-family:sans-serif;letter-spacing:0px;word-spacing:0px;fill:#000000;fill-opacity:1;stroke:none;stroke-width:2.29999995"
       x="136.38124"
       y="958.11877"
       id="text4554-1-9"><tspan
         sodipodi:role="line"
         x="136.38124"
         y="958.11877"
         id="tspan4562-3-0"
         style="font-style:normal;font-variant:normal;font-weight:normal;font-stretch:normal;font-size:18.66666794px;font-family:sans-serif;-inkscape-font-specification:'sans-serif, Normal';font-variant-ligatures:normal;font-variant-caps:normal;font-variant-numeric:normal;font-feature-settings:normal;text-align:center;writing-mode:lr-tb;text-anchor:middle;fill:#000000;fill-opacity:1;stroke-width:2.29999995">Large</tspan></text>
    <text
       xml:space="preserve"
       style="font-style:normal;font-variant:normal;font-weight:normal;font-stretch:normal;font-size:8px;line-height:25px;font-family:'Curlz MT';-inkscape-font-specification:'Curlz MT';letter-spacing:0px;word-spacing:0px;fill:#000000;fill-opacity:1;stroke:none"
       x="104.56559"
       y="1083.0934"
       id="text4844"><tspan
         sodipodi:role="line"
         id="tspan4842"
         x="104.56559"
         y="1083.0934"
         style="font-style:normal;font-variant:normal;font-weight:normal;font-stretch:normal;font-family:sans-serif;-inkscape-font-specification:sans-serif">www.masken.berlin</tspan></text>
    <path
       style="fill:none;stroke:#0000fe;stroke-width:1.13385832;stroke-linecap:butt;stroke-linejoin:miter;stroke-miterlimit:4;stroke-dasharray:none;stroke-dashoffset:0;stroke-opacity:1"
       d="m 1597.0926,441.49527 c 0,0 -15.86,16.87956 -33.3081,29.79154 -123.5082,91.39891 -183.0452,115.40224 -367.779,119.2135 l 0.029,329.97685 c 19.1005,0.93064 30.9833,2.754 42.5309,4.40396 119.7851,17.11535 167.8051,55.70581 199.9141,77.77658 45.7972,31.4795 73.8681,80.5853 95.1562,119.0767 41.8544,-24.8796 61.8885,-34.1242 107.6223,-82.053 11.0665,-12.6861 24.8369,-36.8845 24.8369,-36.8845 0,0 12.6252,24.1984 23.6918,36.8845 45.7338,47.9288 65.7678,57.1734 107.6222,82.053 21.2882,-38.4914 49.3591,-87.5972 95.1563,-119.0767 32.109,-22.07077 80.129,-60.66123 199.914,-77.77658 11.5476,-1.64996 24.2876,-4.33042 42.5309,-4.83251 l 0.028,-329.5483 c -184.7336,-3.81126 -244.2706,-27.81459 -367.7789,-119.2135 -17.448,-12.91198 -33.3081,-29.79154 -33.3081,-29.79154 l -68.4293,100.01511 z"
       id="path3715-7"
       inkscape:connector-curvature="0"
       sodipodi:nodetypes="csccsscccccssccsccc" />
    <rect
       style="opacity:1;fill:none;fill-opacity:1;stroke:#ff0000;stroke-width:1.10325396;stroke-linejoin:round;stroke-miterlimit:4;stroke-dasharray:none;stroke-dashoffset:0;stroke-opacity:1"
       id="rect4760"
       width="17.794407"
       height="17.794407"
       x="0.28950387"
       y="435.19754" />
    <rect
       style="opacity:1;fill:none;fill-opacity:1;stroke:#ff0000;stroke-width:1.13262582;stroke-linejoin:round;stroke-miterlimit:4;stroke-dasharray:none;stroke-dashoffset:0;stroke-opacity:1"
       id="rect4762"
       width="2138.0825"
       height="686.74225"
       x="0.56631291"
       y="435.21219" />
  </g>
</svg>
