<?xml version="1.0" encoding="UTF-8" standalone="no"?>
<!-- Created with Inkscape (http://www.inkscape.org/) -->

<svg
   xmlns:dc="http://purl.org/dc/elements/1.1/"
   xmlns:cc="http://creativecommons.org/ns#"
   xmlns:rdf="http://www.w3.org/1999/02/22-rdf-syntax-ns#"
   xmlns:svg="http://www.w3.org/2000/svg"
   xmlns="http://www.w3.org/2000/svg"
   xmlns:sodipodi="http://sodipodi.sourceforge.net/DTD/sodipodi-0.dtd"
   xmlns:inkscape="http://www.inkscape.org/namespaces/inkscape"
   version="1.1"
   id="svg2"
   width="566mm"
   height="182mm"
   viewBox="0 0 2139.213 687.87471"
   sodipodi:docname="Maskenschnitt-Laser-M.svg"
   inkscape:version="0.92.3 (2405546, 2018-03-11)"
   inkscape:label="BottomL">
  <metadata
     id="metadata8">
    <rdf:RDF>
      <cc:Work
         rdf:about="">
        <dc:format>image/svg+xml</dc:format>
        <dc:type
           rdf:resource="http://purl.org/dc/dcmitype/StillImage" />
        <dc:title></dc:title>
      </cc:Work>
    </rdf:RDF>
  </metadata>
  <defs
     id="defs6" />
  <sodipodi:namedview
     pagecolor="#ffffff"
     bordercolor="#666666"
     borderopacity="1"
     objecttolerance="10"
     gridtolerance="10"
     guidetolerance="10"
     inkscape:pageopacity="0"
     inkscape:pageshadow="2"
     inkscape:window-width="1920"
     inkscape:window-height="1138"
     id="namedview4"
     showgrid="false"
     inkscape:document-units="mm"
     units="mm"
     inkscape:snap-text-baseline="false"
     inkscape:zoom="0.5833631"
     inkscape:cx="898.16062"
     inkscape:cy="266.4136"
     inkscape:window-x="1912"
     inkscape:window-y="-8"
     inkscape:window-maximized="1"
     inkscape:current-layer="layer1"
     showguides="false" />
  <g
     inkscape:groupmode="layer"
     id="layer1"
     inkscape:label="TopL"
     transform="translate(0,-434.6459)">
    <rect
       style="fill:none;stroke:#000000;stroke-width:1.13385832;stroke-miterlimit:4;stroke-dasharray:none;stroke-opacity:1"
       id="rect4524"
       width="112.42671"
       height="112.29039"
       x="84.517784"
       y="995.65015"
       ry="0" />
    <text
       xml:space="preserve"
       style="font-style:normal;font-weight:normal;font-size:92px;line-height:1.25;font-family:sans-serif;letter-spacing:0px;word-spacing:0px;fill:#000000;fill-opacity:1;stroke:none;stroke-width:2.29999995"
       x="87.913628"
       y="1065.2485"
       id="text4528"><tspan
         sodipodi:role="line"
         id="tspan4526"
         x="87.913628"
         y="1065.2485"
         style="font-style:normal;font-variant:normal;font-weight:normal;font-stretch:normal;font-size:30.66666603px;font-family:sans-serif;-inkscape-font-specification:'sans-serif, Normal';font-variant-ligatures:normal;font-variant-caps:normal;font-variant-numeric:normal;font-feature-settings:normal;text-align:start;writing-mode:lr-tb;text-anchor:start;stroke-width:2.29999995">3x3cm</tspan></text>
    <path
       style="fill:none;stroke:#000000;stroke-width:1.13385832;stroke-linecap:butt;stroke-linejoin:miter;stroke-miterlimit:4;stroke-dasharray:13.60630003, 13.60630003;stroke-dashoffset:0;stroke-opacity:1"
       d="m 121.38456,941.68553 0.1928,-329.48942"
       id="path858"
       inkscape:connector-curvature="0"
       sodipodi:nodetypes="cc" />
    <text
       xml:space="preserve"
       style="font-style:normal;font-weight:normal;font-size:24.53333473px;line-height:1;font-family:sans-serif;letter-spacing:0px;word-spacing:0px;fill:#000000;fill-opacity:1;stroke:none;stroke-width:2.29999995"
       x="397.6178"
       y="517.93298"
       id="text4554-1"><tspan
         sodipodi:role="line"
         x="397.6178"
         y="517.93298"
         id="tspan4562-3"
         style="font-style:normal;font-variant:normal;font-weight:normal;font-stretch:normal;font-size:18.66666794px;font-family:sans-serif;-inkscape-font-specification:'sans-serif, Normal';font-variant-ligatures:normal;font-variant-caps:normal;font-variant-numeric:normal;font-feature-settings:normal;text-align:center;writing-mode:lr-tb;text-anchor:middle;stroke-width:2.29999995">Medium</tspan></text>
    <flowRoot
       xml:space="preserve"
       id="flowRoot968"
       style="font-style:normal;font-weight:normal;font-size:10.66666698px;line-height:1;font-family:sans-serif;letter-spacing:0px;word-spacing:0px;fill:#000000;fill-opacity:1;stroke:none"
       transform="translate(-38.376697,88.342283)"><flowRegion
         id="flowRegion970"><rect
           id="rect972"
           width="706.4068"
           height="726.45764"
           x="720.28815"
           y="-84.756966" /></flowRegion><flowPara
         id="flowPara974" /></flowRoot>    <text
       xml:space="preserve"
       style="font-style:normal;font-variant:normal;font-weight:normal;font-stretch:normal;font-size:8px;line-height:25px;font-family:'Curlz MT';-inkscape-font-specification:'Curlz MT';letter-spacing:0px;word-spacing:0px;fill:#000000;fill-opacity:1;stroke:none"
       x="104.56559"
       y="1104.7886"
       id="text4844"><tspan
         sodipodi:role="line"
         id="tspan4842"
         x="104.56559"
         y="1104.7886"
         style="font-style:normal;font-variant:normal;font-weight:normal;font-stretch:normal;font-family:sans-serif;-inkscape-font-specification:sans-serif">www.masken.berlin</tspan></text>
    <path
       style="fill:none;stroke:#0000ff;stroke-width:1.13385832;stroke-linecap:butt;stroke-linejoin:miter;stroke-miterlimit:4;stroke-dasharray:none;stroke-opacity:1"
       d="m 664.29984,478.00967 c 0,0 63.11306,61.42937 160.02119,99.29025 58.05953,22.68318 122.34746,34.37951 235.76687,36.203 l 121.2598,-0.7615 0.1597,324.13389 -47.1694,0.95429 -73.6483,4.43432 c 0,0 -98.51394,4.54204 -146.52545,25.64195 -14.06725,6.18222 -68.91824,27.8174 -108.1589,56.48943 -29.3463,21.4425 -58.99576,53.983 -67.67161,67.0932 -4.68635,7.0816 -21.17996,30.6538 -21.95114,30.461 -0.77119,-0.1928 -29.50634,-18.8277 -35.20147,-23.1919 -51.69935,-39.6175 -56.98298,-47.9492 -70.86434,-63.3729 -13.88136,-15.4237 -19.27966,-30.2691 -19.27966,-30.2691 0,0 -5.39831,14.8454 -19.27967,30.2691 -13.88136,15.4237 -19.16499,23.7554 -70.86434,63.3729 -5.69513,4.3642 -34.43028,22.9991 -35.20147,23.1919 -0.77118,0.1928 -17.26479,-23.3794 -21.95114,-30.461 -8.67585,-13.1102 -38.32531,-45.6507 -67.67161,-67.0932 C 336.82824,995.72327 281.97725,974.08809 267.91,967.90587 219.89849,946.80596 121.38456,942.26392 121.38456,942.26392 l -73.6483,-4.43432 -47.169417,-0.95429 0.159722,-324.13389 121.259775,0.7615 c 113.41942,-1.82349 177.70735,-13.51982 235.76688,-36.203 96.90813,-37.86088 160.02119,-99.29025 160.02119,-99.29025 l 73.26272,107.38771 z"
       id="path856-8"
       inkscape:connector-curvature="0"
       sodipodi:nodetypes="cscccccssscsscsscssscccccsccc" />
    <path
       style="fill:none;stroke:#000000;stroke-width:1.13385832;stroke-linecap:butt;stroke-linejoin:miter;stroke-miterlimit:4;stroke-dasharray:13.60630003, 13.60630003;stroke-dashoffset:0;stroke-opacity:1"
       d="m 1060.6897,941.68553 -0.1928,-329.48942"
       id="path858-4"
       inkscape:connector-curvature="0" />
    <path
       style="fill:none;stroke:#0000ff;stroke-width:1.13385832;stroke-linecap:butt;stroke-linejoin:miter;stroke-miterlimit:4;stroke-dasharray:none;stroke-opacity:1"
       d="m 1733.0899,478.00902 c 0,0 63.1131,61.42944 160.0214,99.29035 58.0596,22.6832 122.3475,34.37954 235.7671,36.20304 l 0.6018,328.76132 c 0,0 -98.5141,4.54205 -146.5256,25.64198 -14.0673,6.18223 -68.9183,27.81743 -108.159,56.48949 -29.3464,21.4426 -58.9959,53.9831 -67.6717,67.0933 -4.6864,7.0816 -21.18,30.6538 -21.9512,30.461 -0.7712,-0.1928 -29.5063,-18.8277 -35.2015,-23.1919 -51.6994,-39.6175 -56.983,-47.9492 -70.8644,-63.373 -13.8814,-15.4237 -19.2797,-30.2691 -19.2797,-30.2691 0,0 -5.3983,14.8454 -19.2797,30.2691 -13.8814,15.4238 -19.165,23.7555 -70.8644,63.373 -5.6951,4.3642 -34.4303,22.9991 -35.2015,23.1919 -0.7712,0.1928 -17.2648,-23.3794 -21.9512,-30.461 -8.6758,-13.1102 -38.3253,-45.6507 -67.6716,-67.0933 -39.2407,-28.67206 -94.0918,-50.30726 -108.159,-56.48949 -48.0116,-21.09993 -146.5256,-25.64198 -146.5256,-25.64198 l 0.6017,-328.76132 c 113.4196,-1.8235 177.7076,-13.51984 235.7672,-36.20304 96.9082,-37.86091 160.0213,-99.29035 160.0213,-99.29035 l 73.2628,107.38782 z"
       id="path856-8-5"
       inkscape:connector-curvature="0"
       sodipodi:nodetypes="csccssscsscsscsssccsccc" />
  </g>
</svg>
