<?xml version="1.0" encoding="UTF-8" standalone="no"?>
<!-- Created with Inkscape (http://www.inkscape.org/) -->

<svg
   xmlns:dc="http://purl.org/dc/elements/1.1/"
   xmlns:cc="http://creativecommons.org/ns#"
   xmlns:rdf="http://www.w3.org/1999/02/22-rdf-syntax-ns#"
   xmlns:svg="http://www.w3.org/2000/svg"
   xmlns="http://www.w3.org/2000/svg"
   xmlns:sodipodi="http://sodipodi.sourceforge.net/DTD/sodipodi-0.dtd"
   xmlns:inkscape="http://www.inkscape.org/namespaces/inkscape"
   version="1.1"
   id="svg2"
   width="249mm"
   height="172mm"
   viewBox="0 0 941.10182 650.07875"
   sodipodi:docname="Maskenschnitt-Laser-M-innen.svg"
   inkscape:version="0.92.4 (5da689c313, 2019-01-14)"
   inkscape:label="BottomL">
  <metadata
     id="metadata8">
    <rdf:RDF>
      <cc:Work
         rdf:about="">
        <dc:format>image/svg+xml</dc:format>
        <dc:type
           rdf:resource="http://purl.org/dc/dcmitype/StillImage" />
        <dc:title />
      </cc:Work>
    </rdf:RDF>
  </metadata>
  <defs
     id="defs6" />
  <sodipodi:namedview
     pagecolor="#ffffff"
     bordercolor="#666666"
     borderopacity="1"
     objecttolerance="10"
     gridtolerance="10"
     guidetolerance="10"
     inkscape:pageopacity="0"
     inkscape:pageshadow="2"
     inkscape:window-width="1920"
     inkscape:window-height="1017"
     id="namedview4"
     showgrid="false"
     inkscape:document-units="mm"
     units="mm"
     inkscape:snap-text-baseline="false"
     inkscape:zoom="0.64835165"
     inkscape:cx="600.67175"
     inkscape:cy="257.49886"
     inkscape:window-x="-8"
     inkscape:window-y="-8"
     inkscape:window-maximized="1"
     inkscape:current-layer="layer1"
     width="298mm" />
  <g
     inkscape:groupmode="layer"
     id="layer1"
     inkscape:label="TopL"
     transform="translate(0,-472.44095)">
    <path
       style="fill:none;stroke:#000000;stroke-width:1.13385832;stroke-linecap:butt;stroke-linejoin:miter;stroke-miterlimit:4;stroke-dasharray:none;stroke-opacity:1"
       d="m 491.03075,1031.1409 c 13.88136,15.4237 25.2256,31.0281 81.16738,73.0699 5.73582,4.3106 23.52118,17.5445 24.29237,17.7373 0.77118,0.1928 17.87085,-27.6218 22.5572,-34.7034 8.67585,-13.1102 38.32531,-45.6507 67.67161,-67.0932 39.24066,-28.67202 94.09165,-50.30725 108.1589,-56.48945 48.01157,-21.0999 146.52549,-25.642 146.52549,-25.642 v 0 l -0.6018,-328.76097 v 0 C 827.38245,607.43559 762.68117,596.77007 705.03499,573.05608 650.11586,550.46393 545.0138,473.76583 545.0138,473.76583 L 471.30322,581.09329 397.59671,473.64533 c 0,0 -105.10206,76.6981 -160.02119,99.29025 -57.64618,23.71399 -122.34746,34.37951 -235.766883,36.203 v 0 l -0.60178,328.76097 v 0 c 0,0 98.513933,4.5421 146.525443,25.642 14.06725,6.1822 68.91824,27.81743 108.1589,56.48945 29.3463,21.4425 58.99576,53.983 67.67161,67.0932 4.68635,7.0816 21.78602,34.8962 22.5572,34.7034 0.77119,-0.1928 18.55655,-13.4267 24.29237,-17.7373 55.94178,-42.0418 67.28602,-57.6462 81.16738,-73.0699 13.88136,-15.4238 19.72346,-30.2089 19.72346,-30.2089 0,0 5.84617,14.9056 19.72753,30.3294 z"
       id="path856-5"
       inkscape:connector-curvature="0"
       sodipodi:nodetypes="sscsssccccscccsccccssscsscs" />
  </g>
</svg>
